# xmcd
#
# Track frame offsets:
#	150
#	11872
#	24317
#	34612
#	46161
#	63560
#	73344
#	83923
#	98548
#	112264
#	128285
#	139024
#	145439
#	156842
#	167093
#	178089
#
# Disc length: 2531
#
# Revision: 1
# Processed by: cddbd v1.5.1PL0 Copyright (c) Steve Scherf et al.
# Submitted via: dBpowerAMP V4.0
# Normalized: r0:TDELIM( - )
#
DISCID=da09e110
DTITLE=Various Artist - Country Lovin' ~ Classic Country Love Songs  [CD.1]
DYEAR=2002
DGENRE=Country
TTITLE0=Don Gibson - I Can't Stop Loving You
TTITLE1=Hank Williams - Lovesick Blues
TTITLE2=Wanda Jackson - It's Only Make Believe
TTITLE3=Patsy Cline - I've Loved And Lost Again
TTITLE4=Don Williams - I Believe In You
TTITLE5=Dolly Parton - Please Release Me
TTITLE6=Slim Whitman - Rose Marie
TTITLE7=Don Gibson - Sweet Dreams
TTITLE8=Don Williams - You're My Best Friend
TTITLE9=Merle Haggard - Today I Started Loving You Again
TTITLE10=Patsy Cline - I Cried All The Way To The Altar
TTITLE11=Jim Reeves - Have I Told You Lately That I Love You
TTITLE12=Kitty Wells - Heartbreak USA
TTITLE13=Frankie Laine - I Believe
TTITLE14=Patsy Cline - A Stranger In My Arms
TTITLE15=Hank Williams - I'm So Lonesome I Could Cry
EXTD=
EXTT0=
EXTT1=
EXTT2=
EXTT3=
EXTT4=
EXTT5=
EXTT6=
EXTT7=
EXTT8=
EXTT9=
EXTT10=
EXTT11=
EXTT12=
EXTT13=
EXTT14=
EXTT15=
PLAYORDER=
